<svg width="287" height="44" viewBox="0 0 287 44" fill="none" xmlns="http://www.w3.org/2000/svg">
<path fill-rule="evenodd" clip-rule="evenodd" d="M247.863 1.44798C245.886 1.73074 244.371 3.25885 244.092 5.23655C243.606 8.67723 242.962 14.6152 242.962 21.8971C242.962 29.1773 243.606 35.1141 244.091 38.5552C244.371 40.5342 245.888 42.063 247.866 42.3456C248.249 42.4003 248.664 42.4569 249.109 42.5143C249.578 41.063 250.365 38.3182 250.696 35.3373C251.127 31.4442 251.996 24.7715 252.69 19.4478L252.69 19.4476L252.69 19.4476L252.69 19.4448L252.69 19.4423C252.777 18.7738 252.862 18.1266 252.942 17.5089C253.65 12.0648 255.428 8.58022 256.632 6.22275L256.693 6.10184C257.897 3.74301 258.763 3.30966 259.45 3.43938C260.136 3.5691 260.701 4.43342 260.242 6.27834C258.703 12.4563 259.821 12.034 259.821 12.034C259.821 12.034 261.33 9.44651 263.036 7.16092C263.686 6.29038 264.683 5.21959 265.636 5.57229C266.935 6.0537 266.104 8.92902 265.674 9.9044C265.244 10.8798 264.963 12.1078 265.295 13.157C265.295 13.157 269.743 14.0718 272.82 15.6323C273.016 15.7318 273.263 15.8496 273.546 15.9851L273.546 15.9852L273.546 15.9852C276.138 17.2246 281.819 19.9409 280.592 23.7031C280.526 23.9055 280.449 24.0954 280.364 24.2734C278.27 24.5119 276.733 23.6877 275.881 22.6639C275.663 22.4024 275.275 22.3669 275.013 22.5847C274.751 22.8025 274.716 23.191 274.934 23.4525C275.89 24.6011 277.434 25.4738 279.396 25.5425C277.524 27.1526 274.258 26.8526 271.765 26.6237C270.192 26.4791 268.927 26.363 268.516 26.7737C267.273 28.0167 266.814 34.3883 266.963 37.5724C267.065 39.7349 267.181 40.7047 267.329 41.9459C267.381 42.385 267.438 42.8581 267.499 43.4299C273.364 43.2956 278.035 42.7886 280.974 42.3762C283.062 42.0832 284.63 40.4152 284.88 38.3217C285.371 34.1966 286.095 27.2151 286.095 21.8971C286.095 14.7672 285.444 8.75774 284.958 5.263C284.681 3.27238 283.159 1.72853 281.169 1.44455C277.781 0.960918 271.942 0.330322 264.528 0.330322C257.098 0.330322 251.248 0.963908 247.863 1.44798ZM268.309 18.5735C268.309 20.0449 267.116 21.2378 265.645 21.2378C264.173 21.2378 262.981 20.0449 262.981 18.5735C262.981 17.1021 264.173 15.9093 265.645 15.9093C267.116 15.9093 268.309 17.1021 268.309 18.5735Z" fill="#4A73D5"/>
<path d="M13.7124 42.7324C11.8482 42.7324 10.0786 42.3542 8.40351 41.5977C6.75546 40.8412 5.29653 39.8011 4.02671 38.4772C2.78392 37.1263 1.8113 35.5593 1.10885 33.7762C0.4064 31.9931 0.0551758 30.0613 0.0551758 27.981C0.0551758 26.0087 0.4064 24.1581 1.10885 22.4289C1.8113 20.6728 2.79743 19.1328 4.06724 17.809C5.33705 16.4851 6.823 15.445 8.52509 14.6885C10.2272 13.932 12.0779 13.5538 14.0771 13.5538C16.7789 13.5538 19.0888 14.1346 21.0071 15.2964C22.9523 16.4311 24.4112 17.9441 25.3839 19.8353L21.2097 22.9153C20.4802 21.4833 19.4536 20.3891 18.1297 19.6327C16.8329 18.8762 15.4145 18.4979 13.8745 18.4979C12.6587 18.4979 11.551 18.7546 10.5514 19.2679C9.55175 19.7813 8.68719 20.4837 7.95773 21.3753C7.22826 22.2668 6.6609 23.2935 6.25564 24.4552C5.8774 25.617 5.68828 26.8463 5.68828 28.1431C5.68828 29.521 5.89091 30.7908 6.29616 31.9525C6.72844 33.1143 7.32282 34.1274 8.0793 34.992C8.86281 35.8565 9.76788 36.5455 10.7945 37.0588C11.8212 37.5451 12.9559 37.7883 14.1987 37.7883C15.6577 37.7883 17.049 37.41 18.3729 36.6535C19.7238 35.8971 20.9801 34.7893 22.1418 33.3304V38.8419C19.7373 41.4356 16.9275 42.7324 13.7124 42.7324ZM21.7365 31.831H15.9413V27.7378H26.3565V42.5298H21.7365V31.831Z" fill="#4A73D5"/>
<path d="M30.3932 34.5867V21.2942H35.8237V33.4115C35.8237 35.0325 36.1209 36.2618 36.7153 37.0993C37.3097 37.9098 38.1877 38.3151 39.3495 38.3151C40.0519 38.3151 40.7409 38.18 41.4163 37.9098C42.1187 37.6127 42.7536 37.1804 43.321 36.613C43.9154 36.0457 44.4152 35.3297 44.8205 34.4651V21.2942H50.2509V36.4509C50.2509 37.0183 50.3455 37.4235 50.5346 37.6667C50.7508 37.9098 51.0885 38.0584 51.5478 38.1125V42.5298C51.0074 42.6108 50.5481 42.6649 50.1699 42.6919C49.8187 42.7459 49.4945 42.773 49.1973 42.773C48.2246 42.773 47.4276 42.5568 46.8062 42.1245C46.2119 41.6652 45.8606 41.0438 45.7526 40.2603L45.631 38.5583C44.6854 39.9902 43.4696 41.0844 41.9837 41.8409C40.4977 42.5703 38.8632 42.9351 37.08 42.9351C34.8916 42.9351 33.2301 42.2326 32.0953 40.8277C30.9606 39.3958 30.3932 37.3155 30.3932 34.5867Z" fill="#4A73D5"/>
<path d="M54.1886 36.2483C54.1886 34.8704 54.5668 33.6681 55.3233 32.6415C56.1068 31.5878 57.1875 30.7773 58.5654 30.2099C59.9433 29.6426 61.5238 29.3589 63.3069 29.3589C64.1985 29.3589 65.1036 29.4264 66.0222 29.5615C66.9408 29.6966 67.7378 29.9127 68.4132 30.2099V29.0752C68.4132 27.7243 68.0079 26.6842 67.1974 25.9547C66.4139 25.2252 65.2387 24.8605 63.6717 24.8605C62.5099 24.8605 61.4022 25.0631 60.3485 25.4684C59.2949 25.8736 58.1872 26.468 57.0254 27.2515L55.2828 23.6852C56.6877 22.7667 58.1196 22.0777 59.5785 21.6184C61.0645 21.1591 62.618 20.9295 64.239 20.9295C67.265 20.9295 69.6155 21.686 71.2905 23.1989C72.9926 24.7119 73.8437 26.8733 73.8437 29.6831V36.4509C73.8437 37.0183 73.9382 37.4235 74.1273 37.6667C74.3435 37.9098 74.6812 38.0584 75.1405 38.1125V42.5298C74.6542 42.6108 74.2084 42.6784 73.8031 42.7324C73.4249 42.7865 73.1007 42.8135 72.8305 42.8135C71.7498 42.8135 70.9258 42.5703 70.3584 42.084C69.8181 41.5977 69.4804 41.0033 69.3453 40.3009L69.2237 39.2067C68.3051 40.3954 67.1569 41.314 65.779 41.9624C64.4011 42.6108 62.9962 42.9351 61.5643 42.9351C60.1594 42.9351 58.8896 42.6514 57.7549 42.084C56.6472 41.4896 55.7691 40.6926 55.1207 39.693C54.4993 38.6663 54.1886 37.5181 54.1886 36.2483ZM67.4 37.3425C67.6972 37.0183 67.9404 36.6941 68.1295 36.3699C68.3186 36.0457 68.4132 35.7485 68.4132 35.4783V33.3304C67.7648 33.0602 67.0623 32.8576 66.3058 32.7225C65.5494 32.5604 64.8334 32.4794 64.158 32.4794C62.7531 32.4794 61.5913 32.7901 60.6727 33.4115C59.7812 34.0058 59.3354 34.8029 59.3354 35.8025C59.3354 36.3428 59.484 36.8562 59.7812 37.3425C60.0784 37.8288 60.5106 38.2205 61.078 38.5177C61.6454 38.8149 62.3208 38.9635 63.1043 38.9635C63.9148 38.9635 64.7118 38.8149 65.4953 38.5177C66.2788 38.1935 66.9137 37.8018 67.4 37.3425Z" fill="#4A73D5"/>
<path d="M91.5623 25.9952C89.9143 25.9952 88.4418 26.3194 87.145 26.9678C85.8482 27.5892 84.9161 28.4943 84.3487 29.6831V42.5298H78.9183V21.2942H83.903V25.8331C84.6594 24.3742 85.6185 23.226 86.7803 22.3884C87.942 21.5509 89.1713 21.0916 90.4681 21.0105C90.7653 21.0105 90.995 21.0105 91.1571 21.0105C91.3192 21.0105 91.4543 21.024 91.5623 21.0511V25.9952Z" fill="#4A73D5"/>
<path d="M93.0957 31.912C93.0957 29.8587 93.5009 28.008 94.3115 26.36C95.122 24.6849 96.2432 23.361 97.6751 22.3884C99.107 21.4158 100.742 20.9295 102.579 20.9295C104.146 20.9295 105.551 21.3212 106.793 22.1047C108.063 22.8612 109.049 23.8338 109.752 25.0226V13.824H115.182V36.4509C115.182 37.0183 115.277 37.4235 115.466 37.6667C115.655 37.9098 115.979 38.0584 116.439 38.1125V42.5298C115.493 42.7189 114.723 42.8135 114.129 42.8135C113.156 42.8135 112.345 42.5703 111.697 42.084C111.076 41.5977 110.724 40.9628 110.643 40.1793L110.562 38.8419C109.779 40.1658 108.712 41.1789 107.361 41.8814C106.037 42.5838 104.646 42.9351 103.187 42.9351C101.728 42.9351 100.377 42.6514 99.134 42.084C97.9183 41.5166 96.8511 40.7331 95.9325 39.7335C95.0409 38.7339 94.3385 37.5721 93.8251 36.2483C93.3388 34.8974 93.0957 33.452 93.0957 31.912ZM109.752 34.7488V29.6831C109.482 28.8996 109.049 28.1971 108.455 27.5757C107.861 26.9543 107.199 26.468 106.469 26.1168C105.74 25.7386 105.01 25.5494 104.281 25.5494C103.443 25.5494 102.687 25.7251 102.011 26.0763C101.336 26.4275 100.742 26.9003 100.228 27.4947C99.7419 28.0891 99.3637 28.778 99.0935 29.5615C98.8504 30.345 98.7288 31.169 98.7288 32.0336C98.7288 32.8981 98.8639 33.7222 99.134 34.5057C99.4312 35.2621 99.85 35.9241 100.39 36.4914C100.931 37.0588 101.552 37.5046 102.255 37.8288C102.984 38.153 103.768 38.3151 104.605 38.3151C105.118 38.3151 105.632 38.2341 106.145 38.0719C106.685 37.8828 107.185 37.6397 107.644 37.3425C108.131 37.0183 108.55 36.64 108.901 36.2078C109.279 35.7485 109.563 35.2622 109.752 34.7488Z" fill="#4A73D5"/>
<path d="M120.96 42.5298V13.824H126.553V37.6262H138.91V42.5298H120.96Z" fill="#4A73D5"/>
<path d="M142.287 13.824H147.718V35.7214C147.718 36.6941 147.88 37.356 148.204 37.7072C148.528 38.0314 148.974 38.1935 149.542 38.1935C149.974 38.1935 150.42 38.1395 150.879 38.0314C151.338 37.9234 151.744 37.7883 152.095 37.6262L152.824 41.7598C152.095 42.111 151.244 42.3812 150.271 42.5703C149.298 42.7594 148.42 42.854 147.637 42.854C145.935 42.854 144.611 42.4082 143.665 41.5166C142.747 40.5981 142.287 39.3012 142.287 37.6262V13.824Z" fill="#4A73D5"/>
<path d="M153.731 36.2483C153.731 34.8704 154.11 33.6681 154.866 32.6415C155.65 31.5878 156.73 30.7773 158.108 30.2099C159.486 29.6426 161.066 29.3589 162.85 29.3589C163.741 29.3589 164.646 29.4264 165.565 29.5615C166.483 29.6966 167.28 29.9127 167.956 30.2099V29.0752C167.956 27.7243 167.551 26.6842 166.74 25.9547C165.957 25.2252 164.781 24.8605 163.214 24.8605C162.053 24.8605 160.945 25.0631 159.891 25.4684C158.838 25.8736 157.73 26.468 156.568 27.2515L154.825 23.6852C156.23 22.7667 157.662 22.0777 159.121 21.6184C160.607 21.1591 162.161 20.9295 163.782 20.9295C166.808 20.9295 169.158 21.686 170.833 23.1989C172.535 24.7119 173.386 26.8733 173.386 29.6831V36.4509C173.386 37.0183 173.481 37.4235 173.67 37.6667C173.886 37.9098 174.224 38.0584 174.683 38.1125V42.5298C174.197 42.6108 173.751 42.6784 173.346 42.7324C172.968 42.7865 172.643 42.8135 172.373 42.8135C171.293 42.8135 170.469 42.5703 169.901 42.084C169.361 41.5977 169.023 41.0033 168.888 40.3009L168.766 39.2067C167.848 40.3954 166.7 41.314 165.322 41.9624C163.944 42.6108 162.539 42.9351 161.107 42.9351C159.702 42.9351 158.432 42.6514 157.298 42.084C156.19 41.4896 155.312 40.6926 154.663 39.693C154.042 38.6663 153.731 37.5181 153.731 36.2483ZM166.943 37.3425C167.24 37.0183 167.483 36.6941 167.672 36.3699C167.861 36.0457 167.956 35.7485 167.956 35.4783V33.3304C167.307 33.0602 166.605 32.8576 165.849 32.7225C165.092 32.5604 164.376 32.4794 163.701 32.4794C162.296 32.4794 161.134 32.7901 160.215 33.4115C159.324 34.0058 158.878 34.8029 158.878 35.8025C158.878 36.3428 159.027 36.8562 159.324 37.3425C159.621 37.8288 160.053 38.2205 160.621 38.5177C161.188 38.8149 161.863 38.9635 162.647 38.9635C163.458 38.9635 164.255 38.8149 165.038 38.5177C165.822 38.1935 166.456 37.8018 166.943 37.3425Z" fill="#4A73D5"/>
<path d="M211.449 42.5298H206.019V30.6152C206.019 28.9401 205.721 27.7108 205.127 26.9273C204.56 26.1168 203.763 25.7115 202.736 25.7115C201.682 25.7115 200.669 26.1303 199.697 26.9678C198.751 27.7784 198.076 28.8455 197.67 30.1694V42.5298H192.24V30.6152C192.24 28.9131 191.943 27.6703 191.348 26.8868C190.781 26.1033 189.984 25.7115 188.957 25.7115C187.903 25.7115 186.89 26.1168 185.918 26.9273C184.972 27.7378 184.297 28.805 183.891 30.1289V42.5298H178.461V21.2942H183.365V25.2252C184.175 23.8474 185.256 22.7937 186.607 22.0642C187.958 21.3077 189.511 20.9295 191.267 20.9295C193.023 20.9295 194.388 21.3618 195.36 22.2263C196.36 23.0909 196.995 24.1581 197.265 25.4279C198.13 23.9689 199.224 22.8612 200.548 22.1047C201.898 21.3212 203.411 20.9295 205.086 20.9295C206.41 20.9295 207.478 21.1726 208.288 21.659C209.126 22.1182 209.774 22.7532 210.233 23.5637C210.693 24.3472 211.003 25.2387 211.165 26.2384C211.354 27.238 211.449 28.2512 211.449 29.2778V42.5298Z" fill="#4A73D5"/>
<path d="M214.718 36.2483C214.718 34.8704 215.096 33.6681 215.853 32.6415C216.636 31.5878 217.717 30.7773 219.095 30.2099C220.473 29.6426 222.053 29.3589 223.836 29.3589C224.728 29.3589 225.633 29.4264 226.552 29.5615C227.47 29.6966 228.267 29.9127 228.943 30.2099V29.0752C228.943 27.7243 228.537 26.6842 227.727 25.9547C226.943 25.2252 225.768 24.8605 224.201 24.8605C223.039 24.8605 221.932 25.0631 220.878 25.4684C219.824 25.8736 218.717 26.468 217.555 27.2515L215.812 23.6852C217.217 22.7667 218.649 22.0777 220.108 21.6184C221.594 21.1591 223.147 20.9295 224.768 20.9295C227.794 20.9295 230.145 21.686 231.82 23.1989C233.522 24.7119 234.373 26.8733 234.373 29.6831V36.4509C234.373 37.0183 234.468 37.4235 234.657 37.6667C234.873 37.9098 235.211 38.0584 235.67 38.1125V42.5298C235.184 42.6108 234.738 42.6784 234.333 42.7324C233.954 42.7865 233.63 42.8135 233.36 42.8135C232.279 42.8135 231.455 42.5703 230.888 42.084C230.348 41.5977 230.01 41.0033 229.875 40.3009L229.753 39.2067C228.835 40.3954 227.686 41.314 226.308 41.9624C224.931 42.6108 223.526 42.9351 222.094 42.9351C220.689 42.9351 219.419 42.6514 218.284 42.084C217.177 41.4896 216.299 40.6926 215.65 39.693C215.029 38.6663 214.718 37.5181 214.718 36.2483ZM227.929 37.3425C228.227 37.0183 228.47 36.6941 228.659 36.3699C228.848 36.0457 228.943 35.7485 228.943 35.4783V33.3304C228.294 33.0602 227.592 32.8576 226.835 32.7225C226.079 32.5604 225.363 32.4794 224.687 32.4794C223.282 32.4794 222.121 32.7901 221.202 33.4115C220.311 34.0058 219.865 34.8029 219.865 35.8025C219.865 36.3428 220.013 36.8562 220.311 37.3425C220.608 37.8288 221.04 38.2205 221.607 38.5177C222.175 38.8149 222.85 38.9635 223.634 38.9635C224.444 38.9635 225.241 38.8149 226.025 38.5177C226.808 38.1935 227.443 37.8018 227.929 37.3425Z" fill="#4A73D5"/>
</svg>
