<?xml version="1.0" encoding="UTF-8"?>
<svg xmlns="http://www.w3.org/2000/svg" xmlns:xlink="http://www.w3.org/1999/xlink" width="1200px" height="184px" viewBox="0 0 1200 184" version="1.1">
<g id="surface1">
<path style=" stroke:none;fill-rule:evenodd;fill:rgb(29.019608%,45.098039%,83.529412%);fill-opacity:1;" d="M 1036.359375 6.054688 C 1028.09375 7.238281 1021.761719 13.628906 1020.59375 21.898438 C 1018.5625 36.285156 1015.867188 61.117188 1015.867188 91.570312 C 1015.867188 122.015625 1018.5625 146.839844 1020.589844 161.230469 C 1021.761719 169.507812 1028.101562 175.898438 1036.375 177.082031 C 1037.976562 177.308594 1039.710938 177.546875 1041.570312 177.785156 C 1043.53125 171.71875 1046.824219 160.238281 1048.207031 147.773438 C 1050.007812 131.492188 1053.640625 103.589844 1056.542969 81.328125 L 1056.542969 81.304688 C 1056.90625 78.507812 1057.261719 75.800781 1057.597656 73.21875 C 1060.558594 50.453125 1067.992188 35.882812 1073.027344 26.023438 L 1073.28125 25.515625 C 1078.316406 15.652344 1081.9375 13.839844 1084.808594 14.382812 C 1087.675781 14.925781 1090.039062 18.539062 1088.121094 26.253906 C 1081.683594 52.089844 1086.359375 50.324219 1086.359375 50.324219 C 1086.359375 50.324219 1092.667969 39.503906 1099.800781 29.945312 C 1102.519531 26.304688 1106.6875 21.828125 1110.671875 23.300781 C 1116.105469 25.316406 1112.628906 37.339844 1110.832031 41.417969 C 1109.035156 45.496094 1107.859375 50.632812 1109.246094 55.019531 C 1109.246094 55.019531 1127.84375 58.847656 1140.710938 65.371094 C 1141.53125 65.789062 1142.5625 66.28125 1143.746094 66.847656 C 1154.582031 72.03125 1178.335938 83.390625 1173.207031 99.121094 C 1172.929688 99.96875 1172.609375 100.761719 1172.253906 101.507812 C 1163.5 102.503906 1157.070312 99.058594 1153.507812 94.777344 C 1152.597656 93.683594 1150.976562 93.535156 1149.878906 94.445312 C 1148.785156 95.355469 1148.636719 96.980469 1149.550781 98.074219 C 1153.546875 102.878906 1160.003906 106.527344 1168.207031 106.8125 C 1160.378906 113.546875 1146.722656 112.292969 1136.300781 111.335938 C 1129.722656 110.730469 1124.433594 110.246094 1122.714844 111.960938 C 1117.519531 117.160156 1115.597656 143.804688 1116.222656 157.121094 C 1116.648438 166.164062 1117.132812 170.21875 1117.75 175.410156 C 1117.96875 177.246094 1118.207031 179.226562 1118.460938 181.617188 C 1142.984375 181.054688 1162.515625 178.933594 1174.804688 177.210938 C 1183.535156 175.984375 1190.089844 169.007812 1191.136719 160.253906 C 1193.1875 143.003906 1196.214844 113.808594 1196.214844 91.570312 C 1196.214844 61.753906 1193.492188 36.625 1191.460938 22.007812 C 1190.304688 13.683594 1183.941406 7.226562 1175.621094 6.039062 C 1161.453125 4.019531 1137.039062 1.382812 1106.039062 1.382812 C 1074.972656 1.382812 1050.515625 4.03125 1036.359375 6.054688 Z M 1121.847656 77.671875 C 1121.847656 83.824219 1116.859375 88.8125 1110.710938 88.8125 C 1104.554688 88.8125 1099.570312 83.824219 1099.570312 77.671875 C 1099.570312 71.519531 1104.554688 66.53125 1110.710938 66.53125 C 1116.859375 66.53125 1121.847656 71.519531 1121.847656 77.671875 Z M 1121.847656 77.671875 "/>
<path style=" stroke:none;fill-rule:nonzero;fill:rgb(29.019608%,45.098039%,83.529412%);fill-opacity:1;" d="M 57.335938 178.699219 C 49.539062 178.699219 42.140625 177.117188 35.136719 173.953125 C 28.246094 170.789062 22.144531 166.441406 16.835938 160.90625 C 11.640625 155.253906 7.574219 148.703125 4.636719 141.246094 C 1.699219 133.789062 0.230469 125.710938 0.230469 117.011719 C 0.230469 108.761719 1.699219 101.023438 4.636719 93.792969 C 7.574219 86.449219 11.695312 80.011719 17.007812 74.472656 C 22.316406 68.9375 28.527344 64.589844 35.644531 61.425781 C 42.761719 58.261719 50.5 56.679688 58.859375 56.679688 C 70.15625 56.679688 79.8125 59.109375 87.835938 63.964844 C 95.96875 68.710938 102.066406 75.039062 106.136719 82.949219 L 88.683594 95.828125 C 85.632812 89.839844 81.339844 85.261719 75.804688 82.101562 C 70.382812 78.9375 64.449219 77.355469 58.011719 77.355469 C 52.929688 77.355469 48.296875 78.429688 44.117188 80.574219 C 39.9375 82.722656 36.324219 85.660156 33.273438 89.386719 C 30.222656 93.117188 27.851562 97.410156 26.15625 102.265625 C 24.574219 107.125 23.785156 112.265625 23.785156 117.6875 C 23.785156 123.453125 24.632812 128.761719 26.324219 133.621094 C 28.132812 138.476562 30.617188 142.714844 33.78125 146.332031 C 37.058594 149.945312 40.839844 152.828125 45.132812 154.972656 C 49.425781 157.007812 54.171875 158.023438 59.367188 158.023438 C 65.46875 158.023438 71.285156 156.441406 76.820312 153.277344 C 82.46875 150.113281 87.722656 145.484375 92.578125 139.382812 L 92.578125 162.429688 C 82.523438 173.277344 70.777344 178.699219 57.335938 178.699219 Z M 90.882812 133.113281 L 66.652344 133.113281 L 66.652344 115.996094 L 110.203125 115.996094 L 110.203125 177.851562 L 90.882812 177.851562 Z M 90.882812 133.113281 "/>
<path style=" stroke:none;fill-rule:nonzero;fill:rgb(29.019608%,45.098039%,83.529412%);fill-opacity:1;" d="M 127.078125 144.636719 L 127.078125 89.046875 L 149.785156 89.046875 L 149.785156 139.722656 C 149.785156 146.5 151.027344 151.640625 153.511719 155.140625 C 156 158.53125 159.667969 160.226562 164.527344 160.226562 C 167.464844 160.226562 170.34375 159.660156 173.167969 158.53125 C 176.105469 157.289062 178.761719 155.480469 181.132812 153.109375 C 183.617188 150.738281 185.707031 147.742188 187.402344 144.125 L 187.402344 89.046875 L 210.109375 89.046875 L 210.109375 152.429688 C 210.109375 154.804688 210.503906 156.5 211.292969 157.515625 C 212.199219 158.53125 213.609375 159.152344 215.53125 159.378906 L 215.53125 177.851562 C 213.269531 178.191406 211.351562 178.417969 209.769531 178.53125 C 208.300781 178.753906 206.945312 178.867188 205.703125 178.867188 C 201.636719 178.867188 198.304688 177.964844 195.707031 176.15625 C 193.21875 174.234375 191.75 171.636719 191.300781 168.359375 L 190.792969 161.242188 C 186.839844 167.230469 181.753906 171.808594 175.542969 174.972656 C 169.328125 178.019531 162.496094 179.546875 155.039062 179.546875 C 145.886719 179.546875 138.941406 176.609375 134.195312 170.734375 C 129.453125 164.746094 127.078125 156.046875 127.078125 144.636719 Z M 127.078125 144.636719 "/>
<path style=" stroke:none;fill-rule:nonzero;fill:rgb(29.019608%,45.098039%,83.529412%);fill-opacity:1;" d="M 226.574219 151.582031 C 226.574219 145.820312 228.152344 140.792969 231.316406 136.5 C 234.59375 132.09375 239.113281 128.703125 244.871094 126.332031 C 250.632812 123.960938 257.242188 122.773438 264.699219 122.773438 C 268.425781 122.773438 272.210938 123.054688 276.050781 123.621094 C 279.890625 124.1875 283.222656 125.089844 286.046875 126.332031 L 286.046875 121.585938 C 286.046875 115.9375 284.355469 111.589844 280.964844 108.539062 C 277.6875 105.488281 272.773438 103.960938 266.222656 103.960938 C 261.367188 103.960938 256.734375 104.808594 252.328125 106.503906 C 247.921875 108.199219 243.292969 110.683594 238.433594 113.960938 L 231.148438 99.046875 C 237.023438 95.207031 243.007812 92.324219 249.109375 90.402344 C 255.320312 88.484375 261.816406 87.523438 268.59375 87.523438 C 281.246094 87.523438 291.074219 90.6875 298.078125 97.011719 C 305.195312 103.339844 308.753906 112.378906 308.753906 124.128906 L 308.753906 152.429688 C 308.753906 154.804688 309.148438 156.5 309.941406 157.515625 C 310.84375 158.53125 312.257812 159.152344 314.175781 159.378906 L 314.175781 177.851562 C 312.144531 178.191406 310.277344 178.472656 308.585938 178.699219 C 307.003906 178.925781 305.648438 179.039062 304.519531 179.039062 C 300 179.039062 296.554688 178.019531 294.179688 175.988281 C 291.921875 173.953125 290.511719 171.46875 289.945312 168.53125 L 289.4375 163.957031 C 285.597656 168.925781 280.796875 172.769531 275.035156 175.480469 C 269.273438 178.191406 263.398438 179.546875 257.410156 179.546875 C 251.539062 179.546875 246.226562 178.359375 241.484375 175.988281 C 236.851562 173.503906 233.179688 170.167969 230.46875 165.988281 C 227.871094 161.695312 226.574219 156.894531 226.574219 151.582031 Z M 281.8125 156.160156 C 283.054688 154.804688 284.070312 153.449219 284.863281 152.09375 C 285.652344 150.738281 286.046875 149.492188 286.046875 148.363281 L 286.046875 139.382812 C 283.335938 138.25 280.398438 137.40625 277.238281 136.839844 C 274.074219 136.160156 271.082031 135.824219 268.257812 135.824219 C 262.382812 135.824219 257.523438 137.121094 253.683594 139.722656 C 249.957031 142.207031 248.09375 145.539062 248.09375 149.71875 C 248.09375 151.980469 248.714844 154.125 249.957031 156.160156 C 251.199219 158.191406 253.007812 159.832031 255.378906 161.074219 C 257.75 162.316406 260.574219 162.9375 263.851562 162.9375 C 267.238281 162.9375 270.570312 162.316406 273.847656 161.074219 C 277.125 159.71875 279.777344 158.082031 281.8125 156.160156 Z M 281.8125 156.160156 "/>
<path style=" stroke:none;fill-rule:nonzero;fill:rgb(29.019608%,45.098039%,83.529412%);fill-opacity:1;" d="M 382.839844 108.707031 C 375.949219 108.707031 369.792969 110.0625 364.371094 112.773438 C 358.945312 115.371094 355.050781 119.15625 352.675781 124.128906 L 352.675781 177.851562 L 329.972656 177.851562 L 329.972656 89.046875 L 350.8125 89.046875 L 350.8125 108.03125 C 353.976562 101.929688 357.988281 97.125 362.84375 93.625 C 367.703125 90.121094 372.839844 88.203125 378.265625 87.863281 C 379.507812 87.863281 380.46875 87.863281 381.144531 87.863281 C 381.824219 87.863281 382.386719 87.917969 382.839844 88.03125 Z M 382.839844 108.707031 "/>
<path style=" stroke:none;fill-rule:nonzero;fill:rgb(29.019608%,45.098039%,83.529412%);fill-opacity:1;" d="M 389.25 133.449219 C 389.25 124.863281 390.945312 117.125 394.332031 110.234375 C 397.722656 103.226562 402.410156 97.691406 408.398438 93.625 C 414.382812 89.558594 421.222656 87.523438 428.902344 87.523438 C 435.453125 87.523438 441.328125 89.160156 446.519531 92.4375 C 451.832031 95.601562 455.953125 99.667969 458.894531 104.640625 L 458.894531 57.808594 L 481.597656 57.808594 L 481.597656 152.429688 C 481.597656 154.804688 481.996094 156.5 482.785156 157.515625 C 483.574219 158.53125 484.929688 159.152344 486.851562 159.378906 L 486.851562 177.851562 C 482.898438 178.644531 479.679688 179.039062 477.195312 179.039062 C 473.125 179.039062 469.734375 178.019531 467.027344 175.988281 C 464.429688 173.953125 462.957031 171.300781 462.617188 168.023438 L 462.28125 162.429688 C 459.007812 167.964844 454.546875 172.203125 448.894531 175.140625 C 443.359375 178.078125 437.542969 179.546875 431.445312 179.546875 C 425.34375 179.546875 419.695312 178.359375 414.496094 175.988281 C 409.414062 173.613281 404.953125 170.339844 401.113281 166.160156 C 397.382812 161.976562 394.445312 157.121094 392.300781 151.582031 C 390.265625 145.933594 389.25 139.890625 389.25 133.449219 Z M 458.894531 145.3125 L 458.894531 124.128906 C 457.765625 120.851562 455.953125 117.914062 453.46875 115.316406 C 450.988281 112.71875 448.21875 110.683594 445.167969 109.214844 C 442.117188 107.632812 439.066406 106.84375 436.019531 106.84375 C 432.515625 106.84375 429.351562 107.578125 426.527344 109.046875 C 423.703125 110.515625 421.222656 112.492188 419.070312 114.976562 C 417.039062 117.464844 415.457031 120.34375 414.328125 123.621094 C 413.3125 126.898438 412.804688 130.34375 412.804688 133.957031 C 412.804688 137.574219 413.367188 141.019531 414.496094 144.296875 C 415.738281 147.460938 417.492188 150.226562 419.75 152.601562 C 422.011719 154.972656 424.609375 156.835938 427.546875 158.191406 C 430.59375 159.550781 433.875 160.226562 437.371094 160.226562 C 439.519531 160.226562 441.667969 159.886719 443.8125 159.210938 C 446.070312 158.417969 448.160156 157.402344 450.078125 156.160156 C 452.117188 154.804688 453.867188 153.222656 455.335938 151.414062 C 456.914062 149.492188 458.101562 147.460938 458.894531 145.3125 Z M 458.894531 145.3125 "/>
<path style=" stroke:none;fill-rule:nonzero;fill:rgb(29.019608%,45.098039%,83.529412%);fill-opacity:1;" d="M 505.757812 177.851562 L 505.757812 57.808594 L 529.140625 57.808594 L 529.140625 157.347656 L 580.808594 157.347656 L 580.808594 177.851562 Z M 505.757812 177.851562 "/>
<path style=" stroke:none;fill-rule:nonzero;fill:rgb(29.019608%,45.098039%,83.529412%);fill-opacity:1;" d="M 594.929688 57.808594 L 617.636719 57.808594 L 617.636719 149.378906 C 617.636719 153.449219 618.3125 156.214844 619.667969 157.683594 C 621.023438 159.039062 622.886719 159.71875 625.261719 159.71875 C 627.070312 159.71875 628.933594 159.492188 630.851562 159.039062 C 632.773438 158.589844 634.46875 158.023438 635.9375 157.347656 L 638.984375 174.632812 C 635.9375 176.101562 632.378906 177.230469 628.3125 178.019531 C 624.242188 178.8125 620.570312 179.207031 617.296875 179.207031 C 610.179688 179.207031 604.644531 177.34375 600.691406 173.613281 C 596.851562 169.773438 594.929688 164.351562 594.929688 157.347656 Z M 594.929688 57.808594 "/>
<path style=" stroke:none;fill-rule:nonzero;fill:rgb(29.019608%,45.098039%,83.529412%);fill-opacity:1;" d="M 642.777344 151.582031 C 642.777344 145.820312 644.363281 140.792969 647.523438 136.5 C 650.800781 132.09375 655.316406 128.703125 661.078125 126.332031 C 666.839844 123.960938 673.445312 122.773438 680.90625 122.773438 C 684.632812 122.773438 688.414062 123.054688 692.257812 123.621094 C 696.097656 124.1875 699.429688 125.089844 702.253906 126.332031 L 702.253906 121.585938 C 702.253906 115.9375 700.5625 111.589844 697.171875 108.539062 C 693.898438 105.488281 688.980469 103.960938 682.429688 103.960938 C 677.574219 103.960938 672.941406 104.808594 668.535156 106.503906 C 664.132812 108.199219 659.5 110.683594 654.640625 113.960938 L 647.351562 99.046875 C 653.226562 95.207031 659.214844 92.324219 665.3125 90.402344 C 671.527344 88.484375 678.023438 87.523438 684.804688 87.523438 C 697.453125 87.523438 707.28125 90.6875 714.285156 97.011719 C 721.402344 103.339844 724.957031 112.378906 724.957031 124.128906 L 724.957031 152.429688 C 724.957031 154.804688 725.355469 156.5 726.144531 157.515625 C 727.050781 158.53125 728.460938 159.152344 730.382812 159.378906 L 730.382812 177.851562 C 728.351562 178.191406 726.484375 178.472656 724.792969 178.699219 C 723.210938 178.925781 721.851562 179.039062 720.722656 179.039062 C 716.207031 179.039062 712.761719 178.019531 710.386719 175.988281 C 708.128906 173.953125 706.714844 171.46875 706.152344 168.53125 L 705.640625 163.957031 C 701.804688 168.925781 697.003906 172.769531 691.242188 175.480469 C 685.480469 178.191406 679.605469 179.546875 673.617188 179.546875 C 667.742188 179.546875 662.433594 178.359375 657.691406 175.988281 C 653.058594 173.503906 649.386719 170.167969 646.675781 165.988281 C 644.078125 161.695312 642.777344 156.894531 642.777344 151.582031 Z M 698.019531 156.160156 C 699.261719 154.804688 700.277344 153.449219 701.066406 152.09375 C 701.859375 150.738281 702.253906 149.492188 702.253906 148.363281 L 702.253906 139.382812 C 699.542969 138.25 696.605469 137.40625 693.445312 136.839844 C 690.28125 136.160156 687.285156 135.824219 684.464844 135.824219 C 678.589844 135.824219 673.730469 137.121094 669.886719 139.722656 C 666.164062 142.207031 664.296875 145.539062 664.296875 149.71875 C 664.296875 151.980469 664.921875 154.125 666.164062 156.160156 C 667.40625 158.191406 669.210938 159.832031 671.585938 161.074219 C 673.957031 162.316406 676.777344 162.9375 680.058594 162.9375 C 683.449219 162.9375 686.78125 162.316406 690.054688 161.074219 C 693.332031 159.71875 695.984375 158.082031 698.019531 156.160156 Z M 698.019531 156.160156 "/>
<path style=" stroke:none;fill-rule:nonzero;fill:rgb(29.019608%,45.098039%,83.529412%);fill-opacity:1;" d="M 884.105469 177.851562 L 861.402344 177.851562 L 861.402344 128.027344 C 861.402344 121.023438 860.15625 115.882812 857.675781 112.605469 C 855.304688 109.214844 851.972656 107.519531 847.675781 107.519531 C 843.269531 107.519531 839.035156 109.273438 834.96875 112.773438 C 831.015625 116.164062 828.191406 120.625 826.496094 126.164062 L 826.496094 177.851562 L 803.789062 177.851562 L 803.789062 128.027344 C 803.789062 120.910156 802.550781 115.710938 800.0625 112.4375 C 797.691406 109.160156 794.359375 107.519531 790.0625 107.519531 C 785.65625 107.519531 781.421875 109.214844 777.359375 112.605469 C 773.402344 115.996094 770.578125 120.457031 768.882812 125.992188 L 768.882812 177.851562 L 746.179688 177.851562 L 746.179688 89.046875 L 766.683594 89.046875 L 766.683594 105.488281 C 770.070312 99.726562 774.589844 95.320312 780.238281 92.269531 C 785.886719 89.105469 792.378906 87.523438 799.722656 87.523438 C 807.066406 87.523438 812.773438 89.332031 816.835938 92.945312 C 821.015625 96.5625 823.671875 101.023438 824.800781 106.335938 C 828.417969 100.234375 832.992188 95.601562 838.527344 92.4375 C 844.171875 89.160156 850.5 87.523438 857.503906 87.523438 C 863.039062 87.523438 867.503906 88.539062 870.890625 90.574219 C 874.394531 92.496094 877.105469 95.148438 879.023438 98.539062 C 880.945312 101.816406 882.242188 105.542969 882.917969 109.722656 C 883.710938 113.90625 884.105469 118.140625 884.105469 122.433594 Z M 884.105469 177.851562 "/>
<path style=" stroke:none;fill-rule:nonzero;fill:rgb(29.019608%,45.098039%,83.529412%);fill-opacity:1;" d="M 897.777344 151.582031 C 897.777344 145.820312 899.355469 140.792969 902.519531 136.5 C 905.796875 132.09375 910.316406 128.703125 916.078125 126.332031 C 921.839844 123.960938 928.445312 122.773438 935.898438 122.773438 C 939.628906 122.773438 943.414062 123.054688 947.253906 123.621094 C 951.09375 124.1875 954.425781 125.089844 957.253906 126.332031 L 957.253906 121.585938 C 957.253906 115.9375 955.554688 111.589844 952.167969 108.539062 C 948.890625 105.488281 943.976562 103.960938 937.425781 103.960938 C 932.566406 103.960938 927.9375 104.808594 923.53125 106.503906 C 919.125 108.199219 914.496094 110.683594 909.636719 113.960938 L 902.351562 99.046875 C 908.222656 95.207031 914.210938 92.324219 920.3125 90.402344 C 926.527344 88.484375 933.019531 87.523438 939.796875 87.523438 C 952.449219 87.523438 962.277344 90.6875 969.28125 97.011719 C 976.398438 103.339844 979.957031 112.378906 979.957031 124.128906 L 979.957031 152.429688 C 979.957031 154.804688 980.355469 156.5 981.144531 157.515625 C 982.046875 158.53125 983.460938 159.152344 985.378906 159.378906 L 985.378906 177.851562 C 983.347656 178.191406 981.484375 178.472656 979.789062 178.699219 C 978.203125 178.925781 976.851562 179.039062 975.722656 179.039062 C 971.203125 179.039062 967.757812 178.019531 965.386719 175.988281 C 963.128906 173.953125 961.714844 171.46875 961.148438 168.53125 L 960.640625 163.957031 C 956.800781 168.925781 951.996094 172.769531 946.234375 175.480469 C 940.476562 178.191406 934.601562 179.546875 928.617188 179.546875 C 922.742188 179.546875 917.429688 178.359375 912.6875 175.988281 C 908.058594 173.503906 904.386719 170.167969 901.671875 165.988281 C 899.074219 161.695312 897.777344 156.894531 897.777344 151.582031 Z M 953.011719 156.160156 C 954.257812 154.804688 955.273438 153.449219 956.066406 152.09375 C 956.855469 150.738281 957.253906 149.492188 957.253906 148.363281 L 957.253906 139.382812 C 954.539062 138.25 951.605469 137.40625 948.4375 136.839844 C 945.277344 136.160156 942.285156 135.824219 939.457031 135.824219 C 933.582031 135.824219 928.730469 137.121094 924.886719 139.722656 C 921.160156 142.207031 919.296875 145.539062 919.296875 149.71875 C 919.296875 151.980469 919.914062 154.125 921.160156 156.160156 C 922.402344 158.191406 924.210938 159.832031 926.578125 161.074219 C 928.953125 162.316406 931.777344 162.9375 935.054688 162.9375 C 938.441406 162.9375 941.773438 162.316406 945.050781 161.074219 C 948.324219 159.71875 950.980469 158.082031 953.011719 156.160156 Z M 953.011719 156.160156 "/>
</g>
</svg>
